DBRep_DrawableShape

CASCADE Topology V1, (c) Matra-Datavision
Locations 14
1
              1               0               0               0 
              0               1               0               0 
              0               0               1               0 
1
              1               0               0               0 
              0               1               0               0 
              0               0               1               0 
1
              1               0               0               0 
              0               1               0               0 
              0               0               1            -1.6 
2  2 1 3 1 0
1
              1               0               0               0 
              0               1               0               0 
              0               0               1               0 
1
              1               0               0               0 
              0               1               0               0 
              0               0               1               0 
2  5 1 6 1 2 1 0
2  5 -1 0
2  2 -1 6 -1 5 -1 0
2  3 -1 2 -1 6 -1 5 -1 0
2  6 -1 5 -1 0
2  5 1 6 1 2 1 3 1 0
2  6 1 2 1 0
2  3 -1 0
Curve2ds 34
1 5.0800000000000125 11.077499999999986 -1 0 
1 5.0800000000000125 -11.077500000000015 0 1 
1 -5.0800000000000125 11.077499999999986 0 -1 
1 -5.0800000000000125 -11.077500000000015 1 0 
1 0 0 0 -1 
1 6.2831853071795862 0 0 -1 
2 2.842e-14 0 1 0 -0 1 0.5
2 -3.8100000000000023 -9.6075000000000159 1 0 -0 1 0.5
1 0 0 1 0 
1 0 -1.6000000000000001 1 0 
1 0 0 0 -1 
1 6.2831853071795862 0 0 -1 
2 0 0 1 0 -0 1 0.5
2 -1.2700000000000102 -9.6075000000000159 1 0 -0 1 0.5
1 0 0 1 0 
1 0 -1.6000000000000001 1 0 
1 0 0 0 -1 
1 6.2831853071795862 0 0 -1 
2 0 0 1 0 -0 1 0.5
2 1.2700000000000102 -9.6075000000000159 1 0 -0 1 0.5
1 0 0 1 0 
1 0 -1.6000000000000001 1 0 
1 0 0 0 -1 
1 6.2831853071795862 0 0 -1 
2 0 0 1 0 -0 1 0.5
2 3.8100000000000023 -9.6075000000000159 1 0 -0 1 0.5
1 0 0 1 0 
1 0 -1.6000000000000001 1 0 
1 0 0 0 -1 
1 6.2831853071795862 0 0 -1 
2 0 0 1 0 -0 1 1.8499999999999943
2 0 6.9024999999999892 1 0 -0 1 1.8499999999999943
1 0 0 1 0 
1 0 -1.6000000000000001 1 0 
Curves 18
1 149.86000000000001 -78.375 0 0 0 -1 
1 139.69999999999999 -78.375 0 0 0 -1 
1 149.86000000000001 -78.375 0 -1 0 0 
1 149.86000000000001 -100.53 0 0 0 -1 
1 149.86000000000001 -100.53 0 0 1 0 
1 139.69999999999999 -100.53 0 0 0 -1 
1 139.69999999999999 -78.375 0 0 -1 0 
1 139.69999999999999 -100.53 0 1 0 0 
1 141.47 -99.060000000000002 0 0 0 -1 
2 140.97 -99.060000000000002 0 0 0 1 1 0 -0 -0 1 0 0.5
1 144.00999999999999 -99.060000000000002 0 0 0 -1 
2 143.50999999999999 -99.060000000000002 0 0 0 1 1 0 -0 -0 1 0 0.5
1 146.55000000000001 -99.060000000000002 0 0 0 -1 
2 146.05000000000001 -99.060000000000002 0 0 0 1 1 0 -0 -0 1 0 0.5
1 149.09 -99.060000000000002 0 0 0 -1 
2 148.59 -99.060000000000002 0 0 0 1 1 0 -0 -0 1 0 0.5
1 146.63 -82.549999999999997 0 0 0 -1 
2 144.78 -82.549999999999997 0 0 0 1 1 0 -0 -0 1 0 1.8500000000000001
Polygon3D 0
PolygonOnTriangulations 45
2 1 2 
p 0.056525 1 0 1.6 
2 4 3 
p 0.056525 1 0 1.6 
2 4 3 
p 0.056525 1 0 1.6 
2 1 2 
p 0.056525 1 0 1.6 
2 1 4 
p 0.056525 1 0 10.16 
2 1 2 
p 0.056525 1 0 10.16 
2 2 3 
p 0.056525 1 0 10.16 
2 1 2 
p 0.056525 1 0 1.6 
2 4 3 
p 0.056525 1 0 1.6 
2 1 4 
p 0.056525 1 0 22.155 
2 4 1 
p 0.056525 1 0 22.155 
2 2 3 
p 0.056525 1 0 22.155 
2 4 3 
p 0.056525 1 0 1.6 
2 1 2 
p 0.056525 1 0 1.6 
2 1 4 
p 0.056525 1 0 22.155 
2 2 3 
p 0.056525 1 0 22.155 
2 2 3 
p 0.056525 1 0 22.155 
2 1 4 
p 0.056525 1 0 10.16 
2 3 4 
p 0.056525 1 0 10.16 
2 2 3 
p 0.056525 1 0 10.16 
2 1 2 
p 0.056525 1 0 1.6 
2 29 28 
p 0.056525 1 0 1.6 
27 1 30 31 32 33 34 35 36 37 38 39 40 41 42 43 44 45 46 47 48 49 50 51 52 53 54 29 
p 0.056525 1 0 0.241660973353061 0.483321946706122 0.724982920059183 0.966643893412244 1.2083048667653 1.44996584011837 1.69162681347143 1.93328778682449 2.17494876017755 2.41660973353061 2.65827070688367 2.89993168023673 3.14159265358979 3.38325362694285 3.62491460029591 3.86657557364897 4.10823654700204 4.3498975203551 4.59155849370816 4.83321946706122 5.07488044041428 5.31654141376734 5.5582023871204 5.79986336047346 6.04152433382652 6.28318530717959 
27 5 6 7 8 9 10 11 12 13 14 15 16 17 18 19 20 21 22 23 24 25 26 27 28 29 30 5 
p 0.056525 1 0 0.241660973353061 0.483321946706122 0.724982920059183 0.966643893412244 1.2083048667653 1.44996584011837 1.69162681347143 1.93328778682449 2.17494876017755 2.41660973353061 2.65827070688367 2.89993168023673 3.14159265358979 3.38325362694285 3.62491460029591 3.86657557364897 4.10823654700204 4.3498975203551 4.59155849370816 4.83321946706122 5.07488044041428 5.31654141376734 5.5582023871204 5.79986336047346 6.04152433382652 6.28318530717959 
27 2 3 4 5 6 7 8 9 10 11 12 13 14 15 16 17 18 19 20 21 22 23 24 25 26 27 28 
p 0.056525 1 0 0.241660973353061 0.483321946706122 0.724982920059183 0.966643893412244 1.2083048667653 1.44996584011837 1.69162681347143 1.93328778682449 2.17494876017755 2.41660973353061 2.65827070688367 2.89993168023673 3.14159265358979 3.38325362694285 3.62491460029591 3.86657557364897 4.10823654700204 4.3498975203551 4.59155849370816 4.83321946706122 5.07488044041428 5.31654141376734 5.5582023871204 5.79986336047346 6.04152433382652 6.28318530717959 
2 1 2 
p 0.056525 1 0 1.6 
2 29 28 
p 0.056525 1 0 1.6 
27 1 30 31 32 33 34 35 36 37 38 39 40 41 42 43 44 45 46 47 48 49 50 51 52 53 54 29 
p 0.056525 1 0 0.241660973353061 0.483321946706122 0.724982920059183 0.966643893412244 1.2083048667653 1.44996584011837 1.69162681347143 1.93328778682449 2.17494876017755 2.41660973353061 2.65827070688367 2.89993168023673 3.14159265358979 3.38325362694285 3.62491460029591 3.86657557364897 4.10823654700204 4.3498975203551 4.59155849370816 4.83321946706122 5.07488044041428 5.31654141376734 5.5582023871204 5.79986336047346 6.04152433382652 6.28318530717959 
27 31 32 33 34 35 36 37 38 39 40 41 42 43 44 45 46 47 48 49 50 51 52 53 54 55 56 31 
p 0.056525 1 0 0.241660973353061 0.483321946706122 0.724982920059183 0.966643893412244 1.2083048667653 1.44996584011837 1.69162681347143 1.93328778682449 2.17494876017755 2.41660973353061 2.65827070688367 2.89993168023673 3.14159265358979 3.38325362694285 3.62491460029591 3.86657557364897 4.10823654700204 4.3498975203551 4.59155849370816 4.83321946706122 5.07488044041428 5.31654141376734 5.5582023871204 5.79986336047346 6.04152433382652 6.28318530717959 
27 2 3 4 5 6 7 8 9 10 11 12 13 14 15 16 17 18 19 20 21 22 23 24 25 26 27 28 
p 0.056525 1 0 0.241660973353061 0.483321946706122 0.724982920059183 0.966643893412244 1.2083048667653 1.44996584011837 1.69162681347143 1.93328778682449 2.17494876017755 2.41660973353061 2.65827070688367 2.89993168023673 3.14159265358979 3.38325362694285 3.62491460029591 3.86657557364897 4.10823654700204 4.3498975203551 4.59155849370816 4.83321946706122 5.07488044041428 5.31654141376734 5.5582023871204 5.79986336047346 6.04152433382652 6.28318530717959 
2 1 2 
p 0.056525 1 0 1.6 
2 29 28 
p 0.056525 1 0 1.6 
27 1 30 31 32 33 34 35 36 37 38 39 40 41 42 43 44 45 46 47 48 49 50 51 52 53 54 29 
p 0.056525 1 0 0.241660973353061 0.483321946706122 0.724982920059183 0.966643893412244 1.2083048667653 1.44996584011837 1.69162681347143 1.93328778682449 2.17494876017755 2.41660973353061 2.65827070688367 2.89993168023673 3.14159265358979 3.38325362694285 3.62491460029591 3.86657557364897 4.10823654700204 4.3498975203551 4.59155849370816 4.83321946706122 5.07488044041428 5.31654141376734 5.5582023871204 5.79986336047346 6.04152433382652 6.28318530717959 
27 57 58 59 60 61 62 63 64 65 66 67 68 69 70 71 72 73 74 75 76 77 78 79 80 81 82 57 
p 0.056525 1 0 0.241660973353061 0.483321946706122 0.724982920059183 0.966643893412244 1.2083048667653 1.44996584011837 1.69162681347143 1.93328778682449 2.17494876017755 2.41660973353061 2.65827070688367 2.89993168023673 3.14159265358979 3.38325362694285 3.62491460029591 3.86657557364897 4.10823654700204 4.3498975203551 4.59155849370816 4.83321946706122 5.07488044041428 5.31654141376734 5.5582023871204 5.79986336047346 6.04152433382652 6.28318530717959 
27 2 3 4 5 6 7 8 9 10 11 12 13 14 15 16 17 18 19 20 21 22 23 24 25 26 27 28 
p 0.056525 1 0 0.241660973353061 0.483321946706122 0.724982920059183 0.966643893412244 1.2083048667653 1.44996584011837 1.69162681347143 1.93328778682449 2.17494876017755 2.41660973353061 2.65827070688367 2.89993168023673 3.14159265358979 3.38325362694285 3.62491460029591 3.86657557364897 4.10823654700204 4.3498975203551 4.59155849370816 4.83321946706122 5.07488044041428 5.31654141376734 5.5582023871204 5.79986336047346 6.04152433382652 6.28318530717959 
2 1 2 
p 0.056525 1 0 1.6 
2 29 28 
p 0.056525 1 0 1.6 
27 1 30 31 32 33 34 35 36 37 38 39 40 41 42 43 44 45 46 47 48 49 50 51 52 53 54 29 
p 0.056525 1 0 0.241660973353061 0.483321946706122 0.724982920059183 0.966643893412244 1.2083048667653 1.44996584011837 1.69162681347143 1.93328778682449 2.17494876017755 2.41660973353061 2.65827070688367 2.89993168023673 3.14159265358979 3.38325362694285 3.62491460029591 3.86657557364897 4.10823654700204 4.3498975203551 4.59155849370816 4.83321946706122 5.07488044041428 5.31654141376734 5.5582023871204 5.79986336047346 6.04152433382652 6.28318530717959 
27 83 84 85 86 87 88 89 90 91 92 93 94 95 96 97 98 99 100 101 102 103 104 105 106 107 108 83 
p 0.056525 1 0 0.241660973353061 0.483321946706122 0.724982920059183 0.966643893412244 1.2083048667653 1.44996584011837 1.69162681347143 1.93328778682449 2.17494876017755 2.41660973353061 2.65827070688367 2.89993168023673 3.14159265358979 3.38325362694285 3.62491460029591 3.86657557364897 4.10823654700204 4.3498975203551 4.59155849370816 4.83321946706122 5.07488044041428 5.31654141376734 5.5582023871204 5.79986336047346 6.04152433382652 6.28318530717959 
27 2 3 4 5 6 7 8 9 10 11 12 13 14 15 16 17 18 19 20 21 22 23 24 25 26 27 28 
p 0.056525 1 0 0.241660973353061 0.483321946706122 0.724982920059183 0.966643893412244 1.2083048667653 1.44996584011837 1.69162681347143 1.93328778682449 2.17494876017755 2.41660973353061 2.65827070688367 2.89993168023673 3.14159265358979 3.38325362694285 3.62491460029591 3.86657557364897 4.10823654700204 4.3498975203551 4.59155849370816 4.83321946706122 5.07488044041428 5.31654141376734 5.5582023871204 5.79986336047346 6.04152433382652 6.28318530717959 
2 1 2 
p 0.056525 1 0 1.6 
2 29 28 
p 0.056525 1 0 1.6 
27 1 30 31 32 33 34 35 36 37 38 39 40 41 42 43 44 45 46 47 48 49 50 51 52 53 54 29 
p 0.056525 1 0 0.241660973353061 0.483321946706122 0.724982920059183 0.966643893412244 1.2083048667653 1.44996584011837 1.69162681347143 1.93328778682449 2.17494876017755 2.41660973353061 2.65827070688367 2.89993168023673 3.14159265358979 3.38325362694285 3.62491460029591 3.86657557364897 4.10823654700204 4.3498975203551 4.59155849370816 4.83321946706122 5.07488044041428 5.31654141376734 5.5582023871204 5.79986336047346 6.04152433382652 6.28318530717959 
27 109 110 111 112 113 114 115 116 117 118 119 120 121 122 123 124 125 126 127 128 129 130 131 132 133 134 109 
p 0.056525 1 0 0.241660973353061 0.483321946706122 0.724982920059183 0.966643893412244 1.2083048667653 1.44996584011837 1.69162681347143 1.93328778682449 2.17494876017755 2.41660973353061 2.65827070688367 2.89993168023673 3.14159265358979 3.38325362694285 3.62491460029591 3.86657557364897 4.10823654700204 4.3498975203551 4.59155849370816 4.83321946706122 5.07488044041428 5.31654141376734 5.5582023871204 5.79986336047346 6.04152433382652 6.28318530717959 
27 2 3 4 5 6 7 8 9 10 11 12 13 14 15 16 17 18 19 20 21 22 23 24 25 26 27 28 
p 0.056525 1 0 0.241660973353061 0.483321946706122 0.724982920059183 0.966643893412244 1.2083048667653 1.44996584011837 1.69162681347143 1.93328778682449 2.17494876017755 2.41660973353061 2.65827070688367 2.89993168023673 3.14159265358979 3.38325362694285 3.62491460029591 3.86657557364897 4.10823654700204 4.3498975203551 4.59155849370816 4.83321946706122 5.07488044041428 5.31654141376734 5.5582023871204 5.79986336047346 6.04152433382652 6.28318530717959 
Surfaces 15
1 149.86000000000001 -78.375 0 0 1 0 -1 0 0 0 -0 1 
1 144.78 -89.452499999999986 0 0 0 1 1 0 -0 -0 1 0 
1 149.86000000000001 -100.53 0 1 -0 0 0 1 0 -0 0 1 
1 139.69999999999999 -78.375 0 -1 -0 -0 0 -1 0 -0 0 1 
1 139.69999999999999 -100.53 0 0 -1 0 1 0 0 -0 0 1 
2 140.97 -99.060000000000002 0 0 0 1 1 0 -0 -0 1 0 0.5
1 140.96999999999997 -99.060000000000002 0 0 0 1 1 0 -0 -0 1 0 
2 143.50999999999999 -99.060000000000002 0 0 0 1 1 0 -0 -0 1 0 0.5
1 143.50999999999999 -99.060000000000002 0 0 0 1 1 0 -0 -0 1 0 
2 146.05000000000001 -99.060000000000002 0 0 0 1 1 0 -0 -0 1 0 0.5
1 146.05000000000001 -99.060000000000002 0 0 0 1 1 0 -0 -0 1 0 
2 148.59 -99.060000000000002 0 0 0 1 1 0 -0 -0 1 0 0.5
1 148.59 -99.060000000000002 0 0 0 1 1 0 -0 -0 1 0 
2 144.78 -82.549999999999997 0 0 0 1 1 0 -0 -0 1 0 1.8500000000000001
1 144.78 -82.549999999999997 0 0 0 1 1 0 -0 -0 1 0 
Triangulations 10
4 2 1 0.056525
149.86 -78.375 0 149.86 -78.375 -1.6 139.7 -78.375 -1.6 139.7 -78.375 0 0 0 0 -1.6 10.16 -1.6 10.16 0 4 1 2 4 2 3 
4 2 1 0.056525
149.86 -100.53 0 149.86 -100.53 -1.6 149.86 -78.375 -1.6 149.86 -78.375 0 0 0 0 -1.6 22.155 -1.6 22.155 0 4 1 2 4 2 3 
4 2 1 0.056525
139.7 -78.375 0 139.7 -78.375 -1.6 139.7 -100.53 -1.6 139.7 -100.53 0 0 0 0 -1.6 22.155 -1.6 22.155 0 4 1 2 4 2 3 
134 142 1 0.056525
149.86 -78.375 0 139.7 -78.375 0 139.7 -100.53 0 149.86 -100.53 0 141.47 -99.06 0 141.455470908713 -98.9403421678562 0 141.412728012827 -98.8276384139781 0 141.344255374086 -98.7284386708796 0 141.254032373366 -98.6485080670532 0 141.147302443521 -98.5924918786573 0 141.030268340128 -98.563645562951 0 140.909731659872 -98.563645562951 0 140.792697556479 -98.5924918786573 0 140.685967626634 -98.6485080670532 0 140.595744625914 -98.7284386708796 0 140.527271987173 -98.8276384139781 0 140.484529091287 -98.9403421678562 0 140.47 -99.06 0 140.484529091287 -99.1796578321438 0 140.527271987173 -99.2923615860219 0 140.595744625914 -99.3915613291204 0 140.685967626634 -99.4714919329468 0 140.792697556479 -99.5275081213427 0 140.909731659872 -99.556354437049 0 141.030268340128 -99.556354437049 0 141.147302443521 -99.5275081213427 0 141.254032373366 -99.4714919329468 0 141.344255374086 -99.3915613291204 0 141.412728012827 -99.2923615860219 0 141.455470908713 -99.1796578321438 0 144.01 -99.06 0 143.995470908713 -98.9403421678562 0 143.952728012827 -98.8276384139781 0 143.884255374086 -98.7284386708796 0 143.794032373366 -98.6485080670532 0 143.687302443521 -98.5924918786573 0 143.570268340128 -98.563645562951 0 143.449731659872 -98.563645562951 0 143.332697556479 -98.5924918786573 0 143.225967626634 -98.6485080670532 0 143.135744625914 -98.7284386708796 0 143.067271987173 -98.8276384139781 0 143.024529091287 -98.9403421678562 0 143.01 -99.06 0 143.024529091287 -99.1796578321438 0 143.067271987173 -99.2923615860219 0 143.135744625914 -99.3915613291204 0 143.225967626634 -99.4714919329468 0 143.332697556479 -99.5275081213427 0 143.449731659872 -99.556354437049 0 143.570268340128 -99.556354437049 0 143.687302443521 -99.5275081213427 0 143.794032373366 -99.4714919329468 0 143.884255374086 -99.3915613291204 0 143.952728012827 -99.2923615860219 0 143.995470908713 -99.1796578321438 0 146.55 -99.06 0 146.535470908713 -98.9403421678562 0 146.492728012827 -98.8276384139781 0 146.424255374086 -98.7284386708796 0 146.334032373366 -98.6485080670532 0 146.227302443521 -98.5924918786573 0 146.110268340128 -98.563645562951 0 145.989731659872 -98.563645562951 0 145.872697556479 -98.5924918786573 0 145.765967626634 -98.6485080670532 0 145.675744625914 -98.7284386708796 0 145.607271987173 -98.8276384139781 0 145.564529091287 -98.9403421678562 0 145.55 -99.06 0 145.564529091287 -99.1796578321438 0 145.607271987173 -99.2923615860219 0 145.675744625914 -99.3915613291204 0 145.765967626634 -99.4714919329468 0 145.872697556479 -99.5275081213427 0 145.989731659872 -99.556354437049 0 146.110268340128 -99.556354437049 0 146.227302443521 -99.5275081213427 0 146.334032373366 -99.4714919329468 0 146.424255374086 -99.3915613291204 0 146.492728012827 -99.2923615860219 0 146.535470908713 -99.1796578321438 0 149.09 -99.06 0 149.075470908713 -98.9403421678562 0 149.032728012827 -98.8276384139781 0 148.964255374086 -98.7284386708796 0 148.874032373366 -98.6485080670532 0 148.767302443521 -98.5924918786573 0 148.650268340128 -98.563645562951 0 148.529731659872 -98.563645562951 0 148.412697556479 -98.5924918786573 0 148.305967626634 -98.6485080670532 0 148.215744625914 -98.7284386708796 0 148.147271987173 -98.8276384139781 0 148.104529091287 -98.9403421678562 0 148.09 -99.06 0 148.104529091287 -99.1796578321438 0 148.147271987173 -99.2923615860219 0 148.215744625914 -99.3915613291204 0 148.305967626634 -99.4714919329468 0 148.412697556479 -99.5275081213427 0 148.529731659872 -99.556354437049 0 148.650268340128 -99.556354437049 0 148.767302443521 -99.5275081213427 0 148.874032373366 -99.4714919329468 0 148.964255374086 -99.3915613291204 0 149.032728012827 -99.2923615860219 0 149.075470908713 -99.1796578321438 0 146.63 -82.55 0 146.576242362238 -82.107266021068 0 146.418093647458 -81.690262131719 0 146.164744884117 -81.3232230822545 0 145.830919781453 -81.0274798480967 0 145.436019041029 -80.820219951032 0 145.002992858472 -80.7134885829186 0 144.557007141528 -80.7134885829186 0 144.123980958971 -80.820219951032 0 143.729080218547 -81.0274798480967 0 143.395255115883 -81.3232230822545 0 143.141906352542 -81.690262131719 0 142.983757637762 -82.107266021068 0 142.93 -82.55 0 142.983757637762 -82.992733978932 0 143.141906352542 -83.409737868281 0 143.395255115883 -83.7767769177455 0 143.729080218547 -84.0725201519033 0 144.123980958971 -84.279780048968 0 144.557007141528 -84.3865114170814 0 145.002992858472 -84.3865114170814 0 145.436019041029 -84.279780048968 0 145.830919781453 -84.0725201519033 0 146.164744884117 -83.7767769177455 0 146.418093647458 -83.409737868281 0 146.576242362238 -82.992733978932 0 5.08000000000001 11.0775 -5.08000000000001 11.0775 -5.08000000000001 -11.0775 5.08000000000001 -11.0775 -3.31 -9.60750000000002 -3.32452909128698 -9.48784216785624 -3.3672719871734 -9.37513841397813 -3.43574462591445 -9.27593867087962 -3.52596762663442 -9.19600806705319 -3.63269755647873 -9.13999187865731 -3.74973165987234 -9.11114556295099 -3.87026834012766 -9.11114556295099 -3.98730244352127 -9.13999187865731 -4.09403237336558 -9.19600806705319 -4.18425537408555 -9.27593867087962 -4.25272801282661 -9.37513841397813 -4.29547090871303 -9.48784216785624 -4.31 -9.60750000000002 -4.29547090871303 -9.72715783214379 -4.25272801282661 -9.8398615860219 -4.18425537408555 -9.93906132912041 -4.09403237336558 -10.0189919329468 -3.98730244352127 -10.0750081213427 -3.87026834012766 -10.103854437049 -3.74973165987234 -10.103854437049 -3.63269755647874 -10.0750081213427 -3.52596762663443 -10.0189919329468 -3.43574462591445 -9.93906132912042 -3.3672719871734 -9.8398615860219 -3.32452909128698 -9.7271578321438 -0.77000000000001 -9.60750000000002 -0.784529091286984 -9.48784216785624 -0.827271987173406 -9.37513841397813 -0.895744625914459 -9.27593867087962 -0.985967626634432 -9.19600806705319 -1.09269755647874 -9.13999187865731 -1.20973165987235 -9.11114556295099 -1.33026834012767 -9.11114556295099 -1.44730244352128 -9.13999187865731 -1.55403237336559 -9.19600806705319 -1.64425537408556 -9.27593867087962 -1.71272801282662 -9.37513841397813 -1.75547090871304 -9.48784216785624 -1.77000000000001 -9.60750000000002 -1.75547090871304 -9.72715783214379 -1.71272801282662 -9.8398615860219 -1.64425537408556 -9.93906132912041 -1.55403237336559 -10.0189919329468 -1.44730244352128 -10.0750081213427 -1.33026834012767 -10.103854437049 -1.20973165987235 -10.103854437049 -1.09269755647874 -10.0750081213427 -0.985967626634434 -10.0189919329468 -0.89574462591446 -9.93906132912042 -0.827271987173406 -9.8398615860219 -0.784529091286984 -9.7271578321438 1.77000000000001 -9.60750000000002 1.75547090871304 -9.48784216785624 1.71272801282661 -9.37513841397813 1.64425537408556 -9.27593867087962 1.55403237336559 -9.19600806705319 1.44730244352128 -9.13999187865731 1.33026834012767 -9.11114556295099 1.20973165987235 -9.11114556295099 1.09269755647874 -9.13999187865731 0.985967626634432 -9.19600806705319 0.895744625914459 -9.27593867087962 0.827271987173406 -9.37513841397813 0.784529091286984 -9.48784216785624 0.77000000000001 -9.60750000000002 0.784529091286984 -9.72715783214379 0.827271987173405 -9.8398615860219 0.895744625914459 -9.93906132912041 0.985967626634432 -10.0189919329468 1.09269755647874 -10.0750081213427 1.20973165987235 -10.103854437049 1.33026834012767 -10.103854437049 1.44730244352128 -10.0750081213427 1.55403237336559 -10.0189919329468 1.64425537408556 -9.93906132912042 1.71272801282661 -9.8398615860219 1.75547090871304 -9.7271578321438 4.31 -9.60750000000002 4.29547090871303 -9.48784216785624 4.25272801282661 -9.37513841397813 4.18425537408555 -9.27593867087962 4.09403237336558 -9.19600806705319 3.98730244352127 -9.13999187865731 3.87026834012766 -9.11114556295099 3.74973165987234 -9.11114556295099 3.63269755647874 -9.13999187865731 3.52596762663442 -9.19600806705319 3.43574462591445 -9.27593867087962 3.3672719871734 -9.37513841397813 3.32452909128698 -9.48784216785624 3.31 -9.60750000000002 3.32452909128698 -9.72715783214379 3.3672719871734 -9.8398615860219 3.43574462591445 -9.93906132912041 3.52596762663442 -10.0189919329468 3.63269755647873 -10.0750081213427 3.74973165987234 -10.103854437049 3.87026834012766 -10.103854437049 3.98730244352127 -10.0750081213427 4.09403237336558 -10.0189919329468 4.18425537408555 -9.93906132912042 4.25272801282661 -9.8398615860219 4.29547090871303 -9.7271578321438 1.84999999999999 6.90249999999999 1.79624236223819 7.34523397893197 1.63809364745843 7.76223786828096 1.38474488411653 8.12927691774546 1.05091978145264 8.42502015190325 0.656019041028689 8.632280048968 0.222992858472347 8.73901141708139 -0.222992858472347 8.73901141708139 -0.656019041028689 8.632280048968 -1.05091978145263 8.42502015190325 -1.38474488411653 8.12927691774546 -1.63809364745843 7.76223786828096 -1.79624236223819 7.34523397893197 -1.84999999999999 6.90249999999999 -1.79624236223819 6.45976602106801 -1.63809364745843 6.04276213171902 -1.38474488411654 5.67572308225452 -1.05091978145264 5.37997984809673 -0.656019041028692 5.17271995103198 -0.222992858472352 5.0659885829186 0.222992858472343 5.06598858291859 0.656019041028684 5.17271995103198 1.05091978145263 5.37997984809673 1.38474488411653 5.67572308225452 1.63809364745843 6.04276213171902 1.79624236223819 6.459766021068 22 21 3 20 3 21 23 22 3 19 3 20 24 23 3 18 3 19 25 24 3 17 3 18 26 25 3 16 3 17 48 28 27 48 47 28 46 29 28 46 28 47 49 27 26 49 26 3 49 48 27 45 30 29 45 29 46 50 49 3 44 5 30 44 30 45 51 50 3 43 6 5 43 5 44 42 6 43 42 7 6 41 8 7 41 7 42 40 9 8 40 8 41 39 10 9 39 9 40 38 11 10 38 10 39 74 73 54 74 54 53 72 54 73 72 55 54 75 74 53 75 53 52 71 55 72 71 56 55 76 51 3 76 75 52 76 52 51 70 32 31 70 56 71 70 31 56 69 32 70 68 33 32 68 34 33 68 32 69 67 34 68 66 34 67 66 35 34 65 36 35 65 35 66 64 37 36 64 36 65 100 80 79 100 99 80 98 81 80 98 82 81 98 80 99 101 79 78 101 100 79 97 82 98 96 82 97 96 57 82 95 58 57 95 57 96 94 58 95 94 59 58 94 60 59 4 102 101 4 103 102 4 104 103 4 101 78 4 76 3 4 77 76 4 78 77 105 104 4 93 60 94 106 105 4 92 60 93 92 61 60 107 106 4 91 61 92 91 62 61 108 107 4 90 62 91 90 63 62 83 108 4 84 83 4 85 84 4 125 14 13 126 13 12 126 125 13 124 15 14 124 14 125 127 12 11 127 126 12 127 11 38 128 127 38 128 38 37 129 128 37 129 64 63 129 37 64 130 63 90 130 129 63 130 90 89 2 16 15 2 122 121 2 123 122 2 124 123 2 15 124 2 3 16 120 2 121 131 130 89 131 89 88 119 2 120 132 131 88 132 88 87 118 2 119 133 132 87 133 87 86 117 2 118 116 2 117 115 2 116 1 110 109 1 111 110 1 112 111 1 113 112 1 114 113 1 115 114 1 134 133 1 109 134 1 85 4 1 133 86 1 86 85 1 2 115 
4 2 1 0.056525
139.7 -100.53 0 139.7 -100.53 -1.6 149.86 -100.53 -1.6 149.86 -100.53 0 0 0 0 -1.6 10.16 -1.6 10.16 0 4 1 2 4 2 3 
54 52 1 0.056525
141.47 -99.06 0 141.47 -99.06 -1.6 141.455470908713 -98.9403421678562 -1.6 141.412728012827 -98.8276384139781 -1.6 141.344255374086 -98.7284386708796 -1.6 141.254032373366 -98.6485080670532 -1.6 141.147302443521 -98.5924918786573 -1.6 141.030268340128 -98.563645562951 -1.6 140.909731659872 -98.563645562951 -1.6 140.792697556479 -98.5924918786573 -1.6 140.685967626634 -98.6485080670532 -1.6 140.595744625914 -98.7284386708796 -1.6 140.527271987173 -98.8276384139781 -1.6 140.484529091287 -98.9403421678562 -1.6 140.47 -99.06 -1.6 140.484529091287 -99.1796578321438 -1.6 140.527271987173 -99.2923615860219 -1.6 140.595744625914 -99.3915613291204 -1.6 140.685967626634 -99.4714919329468 -1.6 140.792697556479 -99.5275081213427 -1.6 140.909731659872 -99.556354437049 -1.6 141.030268340128 -99.556354437049 -1.6 141.147302443521 -99.5275081213427 -1.6 141.254032373366 -99.4714919329468 -1.6 141.344255374086 -99.3915613291204 -1.6 141.412728012827 -99.2923615860219 -1.6 141.455470908713 -99.1796578321438 -1.6 141.47 -99.06 -1.6 141.47 -99.06 0 141.455470908713 -98.9403421678562 0 141.412728012827 -98.8276384139781 0 141.344255374086 -98.7284386708796 0 141.254032373366 -98.6485080670532 0 141.147302443521 -98.5924918786573 0 141.030268340128 -98.563645562951 0 140.909731659872 -98.563645562951 0 140.792697556479 -98.5924918786573 0 140.685967626634 -98.6485080670532 0 140.595744625914 -98.7284386708796 0 140.527271987173 -98.8276384139781 0 140.484529091287 -98.9403421678562 0 140.47 -99.06 0 140.484529091287 -99.1796578321438 0 140.527271987173 -99.2923615860219 0 140.595744625914 -99.3915613291204 0 140.685967626634 -99.4714919329468 0 140.792697556479 -99.5275081213427 0 140.909731659872 -99.556354437049 0 141.030268340128 -99.556354437049 0 141.147302443521 -99.5275081213427 0 141.254032373366 -99.4714919329468 0 141.344255374086 -99.3915613291204 0 141.412728012827 -99.2923615860219 0 141.455470908713 -99.1796578321438 0 0 0 0 -1.6 0.241660973353061 -1.6 0.483321946706122 -1.6 0.724982920059183 -1.6 0.966643893412244 -1.6 1.2083048667653 -1.6 1.44996584011837 -1.6 1.69162681347143 -1.6 1.93328778682449 -1.6 2.17494876017755 -1.6 2.41660973353061 -1.6 2.65827070688367 -1.6 2.89993168023673 -1.6 3.14159265358979 -1.6 3.38325362694285 -1.6 3.62491460029591 -1.6 3.86657557364897 -1.6 4.10823654700204 -1.6 4.3498975203551 -1.6 4.59155849370816 -1.6 4.83321946706122 -1.6 5.07488044041428 -1.6 5.31654141376734 -1.6 5.5582023871204 -1.6 5.79986336047346 -1.6 6.04152433382652 -1.6 6.28318530717959 -1.6 6.28318530717959 0 0.241660973353061 0 0.483321946706122 0 0.724982920059183 0 0.966643893412244 0 1.2083048667653 0 1.44996584011837 0 1.69162681347143 0 1.93328778682449 0 2.17494876017755 0 2.41660973353061 0 2.65827070688367 0 2.89993168023673 0 3.14159265358979 0 3.38325362694285 0 3.62491460029591 0 3.86657557364897 0 4.10823654700204 0 4.3498975203551 0 4.59155849370816 0 4.83321946706122 0 5.07488044041428 0 5.31654141376734 0 5.5582023871204 0 5.79986336047346 0 6.04152433382652 0 30 1 2 30 2 3 31 3 4 31 30 3 32 4 5 32 31 4 33 5 6 33 32 5 34 6 7 34 7 8 34 33 6 35 34 8 36 8 9 36 35 8 37 9 10 37 36 9 38 10 11 38 37 10 39 11 12 39 38 11 40 12 13 40 39 12 41 40 13 41 13 14 42 41 14 42 14 15 43 15 16 43 42 15 44 16 17 44 43 16 45 17 18 45 18 19 45 44 17 46 45 19 47 19 20 47 20 21 47 46 19 48 47 21 49 21 22 49 48 21 50 22 23 50 23 24 50 49 22 51 50 24 52 24 25 52 25 26 52 51 24 53 52 26 54 26 27 54 53 26 29 27 28 29 54 27 
54 52 1 0.056525
144.01 -99.06 0 144.01 -99.06 -1.6 143.995470908713 -98.9403421678562 -1.6 143.952728012827 -98.8276384139781 -1.6 143.884255374086 -98.7284386708796 -1.6 143.794032373366 -98.6485080670532 -1.6 143.687302443521 -98.5924918786573 -1.6 143.570268340128 -98.563645562951 -1.6 143.449731659872 -98.563645562951 -1.6 143.332697556479 -98.5924918786573 -1.6 143.225967626634 -98.6485080670532 -1.6 143.135744625914 -98.7284386708796 -1.6 143.067271987173 -98.8276384139781 -1.6 143.024529091287 -98.9403421678562 -1.6 143.01 -99.06 -1.6 143.024529091287 -99.1796578321438 -1.6 143.067271987173 -99.2923615860219 -1.6 143.135744625914 -99.3915613291204 -1.6 143.225967626634 -99.4714919329468 -1.6 143.332697556479 -99.5275081213427 -1.6 143.449731659872 -99.556354437049 -1.6 143.570268340128 -99.556354437049 -1.6 143.687302443521 -99.5275081213427 -1.6 143.794032373366 -99.4714919329468 -1.6 143.884255374086 -99.3915613291204 -1.6 143.952728012827 -99.2923615860219 -1.6 143.995470908713 -99.1796578321438 -1.6 144.01 -99.06 -1.6 144.01 -99.06 0 143.995470908713 -98.9403421678562 0 143.952728012827 -98.8276384139781 0 143.884255374086 -98.7284386708796 0 143.794032373366 -98.6485080670532 0 143.687302443521 -98.5924918786573 0 143.570268340128 -98.563645562951 0 143.449731659872 -98.563645562951 0 143.332697556479 -98.5924918786573 0 143.225967626634 -98.6485080670532 0 143.135744625914 -98.7284386708796 0 143.067271987173 -98.8276384139781 0 143.024529091287 -98.9403421678562 0 143.01 -99.06 0 143.024529091287 -99.1796578321438 0 143.067271987173 -99.2923615860219 0 143.135744625914 -99.3915613291204 0 143.225967626634 -99.4714919329468 0 143.332697556479 -99.5275081213427 0 143.449731659872 -99.556354437049 0 143.570268340128 -99.556354437049 0 143.687302443521 -99.5275081213427 0 143.794032373366 -99.4714919329468 0 143.884255374086 -99.3915613291204 0 143.952728012827 -99.2923615860219 0 143.995470908713 -99.1796578321438 0 0 0 0 -1.6 0.241660973353061 -1.6 0.483321946706122 -1.6 0.724982920059183 -1.6 0.966643893412244 -1.6 1.2083048667653 -1.6 1.44996584011837 -1.6 1.69162681347143 -1.6 1.93328778682449 -1.6 2.17494876017755 -1.6 2.41660973353061 -1.6 2.65827070688367 -1.6 2.89993168023673 -1.6 3.14159265358979 -1.6 3.38325362694285 -1.6 3.62491460029591 -1.6 3.86657557364897 -1.6 4.10823654700204 -1.6 4.3498975203551 -1.6 4.59155849370816 -1.6 4.83321946706122 -1.6 5.07488044041428 -1.6 5.31654141376734 -1.6 5.5582023871204 -1.6 5.79986336047346 -1.6 6.04152433382652 -1.6 6.28318530717959 -1.6 6.28318530717959 0 0.241660973353061 0 0.483321946706122 0 0.724982920059183 0 0.966643893412244 0 1.2083048667653 0 1.44996584011837 0 1.69162681347143 0 1.93328778682449 0 2.17494876017755 0 2.41660973353061 0 2.65827070688367 0 2.89993168023673 0 3.14159265358979 0 3.38325362694285 0 3.62491460029591 0 3.86657557364897 0 4.10823654700204 0 4.3498975203551 0 4.59155849370816 0 4.83321946706122 0 5.07488044041428 0 5.31654141376734 0 5.5582023871204 0 5.79986336047346 0 6.04152433382652 0 30 1 2 30 2 3 31 3 4 31 30 3 32 4 5 32 31 4 33 5 6 33 32 5 34 6 7 34 7 8 34 33 6 35 34 8 36 8 9 36 35 8 37 9 10 37 36 9 38 10 11 38 37 10 39 11 12 39 38 11 40 12 13 40 39 12 41 40 13 41 13 14 42 41 14 42 14 15 43 15 16 43 42 15 44 16 17 44 43 16 45 17 18 45 18 19 45 44 17 46 45 19 47 19 20 47 20 21 47 46 19 48 47 21 49 21 22 49 48 21 50 22 23 50 23 24 50 49 22 51 50 24 52 24 25 52 25 26 52 51 24 53 52 26 54 26 27 54 53 26 29 27 28 29 54 27 
54 52 1 0.056525
146.55 -99.06 0 146.55 -99.06 -1.6 146.535470908713 -98.9403421678562 -1.6 146.492728012827 -98.8276384139781 -1.6 146.424255374086 -98.7284386708796 -1.6 146.334032373366 -98.6485080670532 -1.6 146.227302443521 -98.5924918786573 -1.6 146.110268340128 -98.563645562951 -1.6 145.989731659872 -98.563645562951 -1.6 145.872697556479 -98.5924918786573 -1.6 145.765967626634 -98.6485080670532 -1.6 145.675744625914 -98.7284386708796 -1.6 145.607271987173 -98.8276384139781 -1.6 145.564529091287 -98.9403421678562 -1.6 145.55 -99.06 -1.6 145.564529091287 -99.1796578321438 -1.6 145.607271987173 -99.2923615860219 -1.6 145.675744625914 -99.3915613291204 -1.6 145.765967626634 -99.4714919329468 -1.6 145.872697556479 -99.5275081213427 -1.6 145.989731659872 -99.556354437049 -1.6 146.110268340128 -99.556354437049 -1.6 146.227302443521 -99.5275081213427 -1.6 146.334032373366 -99.4714919329468 -1.6 146.424255374086 -99.3915613291204 -1.6 146.492728012827 -99.2923615860219 -1.6 146.535470908713 -99.1796578321438 -1.6 146.55 -99.06 -1.6 146.55 -99.06 0 146.535470908713 -98.9403421678562 0 146.492728012827 -98.8276384139781 0 146.424255374086 -98.7284386708796 0 146.334032373366 -98.6485080670532 0 146.227302443521 -98.5924918786573 0 146.110268340128 -98.563645562951 0 145.989731659872 -98.563645562951 0 145.872697556479 -98.5924918786573 0 145.765967626634 -98.6485080670532 0 145.675744625914 -98.7284386708796 0 145.607271987173 -98.8276384139781 0 145.564529091287 -98.9403421678562 0 145.55 -99.06 0 145.564529091287 -99.1796578321438 0 145.607271987173 -99.2923615860219 0 145.675744625914 -99.3915613291204 0 145.765967626634 -99.4714919329468 0 145.872697556479 -99.5275081213427 0 145.989731659872 -99.556354437049 0 146.110268340128 -99.556354437049 0 146.227302443521 -99.5275081213427 0 146.334032373366 -99.4714919329468 0 146.424255374086 -99.3915613291204 0 146.492728012827 -99.2923615860219 0 146.535470908713 -99.1796578321438 0 0 0 0 -1.6 0.241660973353061 -1.6 0.483321946706122 -1.6 0.724982920059183 -1.6 0.966643893412244 -1.6 1.2083048667653 -1.6 1.44996584011837 -1.6 1.69162681347143 -1.6 1.93328778682449 -1.6 2.17494876017755 -1.6 2.41660973353061 -1.6 2.65827070688367 -1.6 2.89993168023673 -1.6 3.14159265358979 -1.6 3.38325362694285 -1.6 3.62491460029591 -1.6 3.86657557364897 -1.6 4.10823654700204 -1.6 4.3498975203551 -1.6 4.59155849370816 -1.6 4.83321946706122 -1.6 5.07488044041428 -1.6 5.31654141376734 -1.6 5.5582023871204 -1.6 5.79986336047346 -1.6 6.04152433382652 -1.6 6.28318530717959 -1.6 6.28318530717959 0 0.241660973353061 0 0.483321946706122 0 0.724982920059183 0 0.966643893412244 0 1.2083048667653 0 1.44996584011837 0 1.69162681347143 0 1.93328778682449 0 2.17494876017755 0 2.41660973353061 0 2.65827070688367 0 2.89993168023673 0 3.14159265358979 0 3.38325362694285 0 3.62491460029591 0 3.86657557364897 0 4.10823654700204 0 4.3498975203551 0 4.59155849370816 0 4.83321946706122 0 5.07488044041428 0 5.31654141376734 0 5.5582023871204 0 5.79986336047346 0 6.04152433382652 0 30 1 2 30 2 3 31 3 4 31 30 3 32 4 5 32 31 4 33 5 6 33 32 5 34 6 7 34 7 8 34 33 6 35 34 8 36 8 9 36 35 8 37 9 10 37 36 9 38 10 11 38 37 10 39 11 12 39 38 11 40 12 13 40 39 12 41 40 13 41 13 14 42 41 14 42 14 15 43 15 16 43 42 15 44 16 17 44 43 16 45 17 18 45 18 19 45 44 17 46 45 19 47 19 20 47 20 21 47 46 19 48 47 21 49 21 22 49 48 21 50 22 23 50 23 24 50 49 22 51 50 24 52 24 25 52 25 26 52 51 24 53 52 26 54 26 27 54 53 26 29 27 28 29 54 27 
54 52 1 0.056525
149.09 -99.06 0 149.09 -99.06 -1.6 149.075470908713 -98.9403421678562 -1.6 149.032728012827 -98.8276384139781 -1.6 148.964255374086 -98.7284386708796 -1.6 148.874032373366 -98.6485080670532 -1.6 148.767302443521 -98.5924918786573 -1.6 148.650268340128 -98.563645562951 -1.6 148.529731659872 -98.563645562951 -1.6 148.412697556479 -98.5924918786573 -1.6 148.305967626634 -98.6485080670532 -1.6 148.215744625914 -98.7284386708796 -1.6 148.147271987173 -98.8276384139781 -1.6 148.104529091287 -98.9403421678562 -1.6 148.09 -99.06 -1.6 148.104529091287 -99.1796578321438 -1.6 148.147271987173 -99.2923615860219 -1.6 148.215744625914 -99.3915613291204 -1.6 148.305967626634 -99.4714919329468 -1.6 148.412697556479 -99.5275081213427 -1.6 148.529731659872 -99.556354437049 -1.6 148.650268340128 -99.556354437049 -1.6 148.767302443521 -99.5275081213427 -1.6 148.874032373366 -99.4714919329468 -1.6 148.964255374086 -99.3915613291204 -1.6 149.032728012827 -99.2923615860219 -1.6 149.075470908713 -99.1796578321438 -1.6 149.09 -99.06 -1.6 149.09 -99.06 0 149.075470908713 -98.9403421678562 0 149.032728012827 -98.8276384139781 0 148.964255374086 -98.7284386708796 0 148.874032373366 -98.6485080670532 0 148.767302443521 -98.5924918786573 0 148.650268340128 -98.563645562951 0 148.529731659872 -98.563645562951 0 148.412697556479 -98.5924918786573 0 148.305967626634 -98.6485080670532 0 148.215744625914 -98.7284386708796 0 148.147271987173 -98.8276384139781 0 148.104529091287 -98.9403421678562 0 148.09 -99.06 0 148.104529091287 -99.1796578321438 0 148.147271987173 -99.2923615860219 0 148.215744625914 -99.3915613291204 0 148.305967626634 -99.4714919329468 0 148.412697556479 -99.5275081213427 0 148.529731659872 -99.556354437049 0 148.650268340128 -99.556354437049 0 148.767302443521 -99.5275081213427 0 148.874032373366 -99.4714919329468 0 148.964255374086 -99.3915613291204 0 149.032728012827 -99.2923615860219 0 149.075470908713 -99.1796578321438 0 0 0 0 -1.6 0.241660973353061 -1.6 0.483321946706122 -1.6 0.724982920059183 -1.6 0.966643893412244 -1.6 1.2083048667653 -1.6 1.44996584011837 -1.6 1.69162681347143 -1.6 1.93328778682449 -1.6 2.17494876017755 -1.6 2.41660973353061 -1.6 2.65827070688367 -1.6 2.89993168023673 -1.6 3.14159265358979 -1.6 3.38325362694285 -1.6 3.62491460029591 -1.6 3.86657557364897 -1.6 4.10823654700204 -1.6 4.3498975203551 -1.6 4.59155849370816 -1.6 4.83321946706122 -1.6 5.07488044041428 -1.6 5.31654141376734 -1.6 5.5582023871204 -1.6 5.79986336047346 -1.6 6.04152433382652 -1.6 6.28318530717959 -1.6 6.28318530717959 0 0.241660973353061 0 0.483321946706122 0 0.724982920059183 0 0.966643893412244 0 1.2083048667653 0 1.44996584011837 0 1.69162681347143 0 1.93328778682449 0 2.17494876017755 0 2.41660973353061 0 2.65827070688367 0 2.89993168023673 0 3.14159265358979 0 3.38325362694285 0 3.62491460029591 0 3.86657557364897 0 4.10823654700204 0 4.3498975203551 0 4.59155849370816 0 4.83321946706122 0 5.07488044041428 0 5.31654141376734 0 5.5582023871204 0 5.79986336047346 0 6.04152433382652 0 30 1 2 30 2 3 31 3 4 31 30 3 32 4 5 32 31 4 33 5 6 33 32 5 34 6 7 34 7 8 34 33 6 35 34 8 36 8 9 36 35 8 37 9 10 37 36 9 38 10 11 38 37 10 39 11 12 39 38 11 40 12 13 40 39 12 41 40 13 41 13 14 42 41 14 42 14 15 43 15 16 43 42 15 44 16 17 44 43 16 45 17 18 45 18 19 45 44 17 46 45 19 47 19 20 47 20 21 47 46 19 48 47 21 49 21 22 49 48 21 50 22 23 50 23 24 50 49 22 51 50 24 52 24 25 52 25 26 52 51 24 53 52 26 54 26 27 54 53 26 29 27 28 29 54 27 
54 52 1 0.056525
146.63 -82.55 0 146.63 -82.55 -1.6 146.576242362238 -82.107266021068 -1.6 146.418093647458 -81.690262131719 -1.6 146.164744884117 -81.3232230822545 -1.6 145.830919781453 -81.0274798480967 -1.6 145.436019041029 -80.820219951032 -1.6 145.002992858472 -80.7134885829186 -1.6 144.557007141528 -80.7134885829186 -1.6 144.123980958971 -80.820219951032 -1.6 143.729080218547 -81.0274798480967 -1.6 143.395255115883 -81.3232230822545 -1.6 143.141906352542 -81.690262131719 -1.6 142.983757637762 -82.107266021068 -1.6 142.93 -82.55 -1.6 142.983757637762 -82.992733978932 -1.6 143.141906352542 -83.409737868281 -1.6 143.395255115883 -83.7767769177455 -1.6 143.729080218547 -84.0725201519033 -1.6 144.123980958971 -84.279780048968 -1.6 144.557007141528 -84.3865114170814 -1.6 145.002992858472 -84.3865114170814 -1.6 145.436019041029 -84.279780048968 -1.6 145.830919781453 -84.0725201519033 -1.6 146.164744884117 -83.7767769177455 -1.6 146.418093647458 -83.409737868281 -1.6 146.576242362238 -82.992733978932 -1.6 146.63 -82.55 -1.6 146.63 -82.55 0 146.576242362238 -82.107266021068 0 146.418093647458 -81.690262131719 0 146.164744884117 -81.3232230822545 0 145.830919781453 -81.0274798480967 0 145.436019041029 -80.820219951032 0 145.002992858472 -80.7134885829186 0 144.557007141528 -80.7134885829186 0 144.123980958971 -80.820219951032 0 143.729080218547 -81.0274798480967 0 143.395255115883 -81.3232230822545 0 143.141906352542 -81.690262131719 0 142.983757637762 -82.107266021068 0 142.93 -82.55 0 142.983757637762 -82.992733978932 0 143.141906352542 -83.409737868281 0 143.395255115883 -83.7767769177455 0 143.729080218547 -84.0725201519033 0 144.123980958971 -84.279780048968 0 144.557007141528 -84.3865114170814 0 145.002992858472 -84.3865114170814 0 145.436019041029 -84.279780048968 0 145.830919781453 -84.0725201519033 0 146.164744884117 -83.7767769177455 0 146.418093647458 -83.409737868281 0 146.576242362238 -82.992733978932 0 0 0 0 -1.6 0.241660973353061 -1.6 0.483321946706122 -1.6 0.724982920059183 -1.6 0.966643893412244 -1.6 1.2083048667653 -1.6 1.44996584011837 -1.6 1.69162681347143 -1.6 1.93328778682449 -1.6 2.17494876017755 -1.6 2.41660973353061 -1.6 2.65827070688367 -1.6 2.89993168023673 -1.6 3.14159265358979 -1.6 3.38325362694285 -1.6 3.62491460029591 -1.6 3.86657557364897 -1.6 4.10823654700204 -1.6 4.3498975203551 -1.6 4.59155849370816 -1.6 4.83321946706122 -1.6 5.07488044041428 -1.6 5.31654141376734 -1.6 5.5582023871204 -1.6 5.79986336047346 -1.6 6.04152433382652 -1.6 6.28318530717959 -1.6 6.28318530717959 0 0.241660973353061 0 0.483321946706122 0 0.724982920059183 0 0.966643893412244 0 1.2083048667653 0 1.44996584011837 0 1.69162681347143 0 1.93328778682449 0 2.17494876017755 0 2.41660973353061 0 2.65827070688367 0 2.89993168023673 0 3.14159265358979 0 3.38325362694285 0 3.62491460029591 0 3.86657557364897 0 4.10823654700204 0 4.3498975203551 0 4.59155849370816 0 4.83321946706122 0 5.07488044041428 0 5.31654141376734 0 5.5582023871204 0 5.79986336047346 0 6.04152433382652 0 30 1 2 30 2 3 31 3 4 31 30 3 32 4 5 32 31 4 33 5 6 33 32 5 34 6 7 34 33 6 35 7 8 35 34 7 36 8 9 36 35 8 37 9 10 37 36 9 38 10 11 38 37 10 39 11 12 39 38 11 40 12 13 40 39 12 41 40 13 41 13 14 42 41 14 42 14 15 43 15 16 43 42 15 44 16 17 44 43 16 44 17 18 45 44 18 46 18 19 46 45 18 47 19 20 47 46 19 48 20 21 48 47 20 49 21 22 49 48 21 50 22 23 50 23 24 50 49 22 51 50 24 52 24 25 52 51 24 53 25 26 53 52 25 54 26 27 54 53 26 29 54 27 29 27 28 

TShapes 54
Ve
1e-07
149.86 -78.375 0
0 0

0101101
*
Ed
 1e-07 1 1 0
1  1 0 0 1.6
6  1 1 0
6  2 2 0
0

0101000
+54 2 -54 4 *
Ve
1e-07
139.7 -78.375 0
0 0

0101101
*
Ed
 1e-07 1 1 0
1  2 0 0 1.6
6  3 1 0
6  4 3 0
0

0101000
+52 2 -52 4 *
Ed
 1e-07 1 1 0
1  3 0 0 10.16
2  1 2 8 0 10.16
6  5 1 9
6  6 4 9
6  7 1 10
0

0101000
+54 11 -52 11 *
Wi

0101100
+53 0 -51 0 -50 7 +50 12 *
Fa
0  1e-07 1 0
2  1
0101000
+49 0 *
Ve
1e-07
149.86 -100.53 0
0 0

0101101
*
Ed
 1e-07 1 1 0
1  4 0 0 1.6
6  8 2 0
6  9 5 0
0

0101000
+47 2 -47 4 *
Ed
 1e-07 1 1 0
1  5 0 0 22.155
2  2 2 8 0 22.155
6  10 2 9
6  11 4 9
6  12 2 10
0

0101000
+47 11 -54 11 *
Wi

0101100
+46 0 -53 0 -45 7 +45 12 *
Fa
0  1e-07 3 0
2  2
0101000
+44 0 *
Ve
1e-07
139.7 -100.53 0
0 0

0101101
*
Ed
 1e-07 1 1 0
1  6 0 0 1.6
6  13 3 0
6  14 5 0
0

0101000
+42 2 -42 4 *
Ed
 1e-07 1 1 0
1  7 0 0 22.155
2  3 2 8 0 22.155
6  15 3 9
6  16 4 9
6  17 3 10
0

0101000
+52 11 -42 11 *
Wi

0101100
+51 0 -41 0 -40 7 +40 12 *
Fa
0  1e-07 4 0
2  3
0101000
+39 0 *
Ed
 1e-07 1 1 0
1  8 0 0 10.16
2  4 2 8 0 10.16
6  18 5 9
6  19 4 9
6  20 5 10
0

0101000
+42 11 -47 11 *
Wi

0101100
+41 0 -46 0 -37 7 +37 12 *
Fa
0  1e-07 5 0
2  5
0101000
+36 0 *
Ve
1e-07
141.47 -99.06 0
0 0

0101101
*
Ed
 1e-07 1 1 0
1  9 0 0 1.6
3  5 6CN 6 0 0 1.6
7  21 22 6 0
0

0101000
+34 0 -34 3 *
Ed
 1e-07 1 1 0
1  10 0 0 6.28318530717959
2  7 7 0 0 6.28318530717959
2  8 2 13 0 6.28318530717959
2  9 6 0 0 6.28318530717959
2  10 6 14 0 6.28318530717959
6  23 6 0
6  24 4 0
6  25 6 14
0

0101000
+34 0 -34 0 *
Wi

0101100
+33 0 -33 0 -32 0 +32 3 *
Fa
0  1e-07 6 0
2  6
0101000
+31 0 *
Ve
1e-07
144.01 -99.06 0
0 0

0101101
*
Ed
 1e-07 1 1 0
1  11 0 0 1.6
3  11 12CN 8 0 0 1.6
7  26 27 7 0
0

0101000
+29 0 -29 3 *
Ed
 1e-07 1 1 0
1  12 0 0 6.28318530717959
2  13 9 0 0 6.28318530717959
2  14 2 13 0 6.28318530717959
2  15 8 0 0 6.28318530717959
2  16 8 14 0 6.28318530717959
6  28 7 0
6  29 4 0
6  30 7 14
0

0101000
+29 0 -29 0 *
Wi

0101100
+28 0 -28 0 -27 0 +27 3 *
Fa
0  1e-07 8 0
2  7
0101000
+26 0 *
Ve
1e-07
146.55 -99.06 0
0 0

0101101
*
Ed
 1e-07 1 1 0
1  13 0 0 1.6
3  17 18CN 10 0 0 1.6
7  31 32 8 0
0

0101000
+24 0 -24 3 *
Ed
 1e-07 1 1 0
1  14 0 0 6.28318530717959
2  19 11 0 0 6.28318530717959
2  20 2 13 0 6.28318530717959
2  21 10 0 0 6.28318530717959
2  22 10 14 0 6.28318530717959
6  33 8 0
6  34 4 0
6  35 8 14
0

0101000
+24 0 -24 0 *
Wi

0101100
+23 0 -23 0 -22 0 +22 3 *
Fa
0  1e-07 10 0
2  8
0101000
+21 0 *
Ve
1e-07
149.09 -99.06 0
0 0

0101101
*
Ed
 1e-07 1 1 0
1  15 0 0 1.6
3  23 24CN 12 0 0 1.6
7  36 37 9 0
0

0101000
+19 0 -19 3 *
Ed
 1e-07 1 1 0
1  16 0 0 6.28318530717959
2  25 13 0 0 6.28318530717959
2  26 2 13 0 6.28318530717959
2  27 12 0 0 6.28318530717959
2  28 12 14 0 6.28318530717959
6  38 9 0
6  39 4 0
6  40 9 14
0

0101000
+19 0 -19 0 *
Wi

0101100
+18 0 -18 0 -17 0 +17 3 *
Fa
0  1e-07 12 0
2  9
0101000
+16 0 *
Ve
1e-07
146.63 -82.55 0
0 0

0101101
*
Ed
 1e-07 1 1 0
1  17 0 0 1.6
3  29 30CN 14 0 0 1.6
7  41 42 10 0
0

0101000
+14 0 -14 3 *
Ed
 1e-07 1 1 0
1  18 0 0 6.28318530717959
2  31 15 0 0 6.28318530717959
2  32 2 13 0 6.28318530717959
2  33 14 0 0 6.28318530717959
2  34 14 14 0 6.28318530717959
6  43 10 0
6  44 4 0
6  45 10 14
0

0101000
+14 0 -14 0 *
Wi

0101100
+13 0 -13 0 -12 0 +12 3 *
Fa
0  1e-07 14 0
2  10
0101000
+11 0 *
Wi

0101100
+50 7 +45 7 +40 7 +37 7 *
Wi

0101100
-32 0 *
Wi

0101100
-27 0 *
Wi

0101100
-22 0 *
Wi

0101100
-17 0 *
Wi

0101100
-12 0 *
Fa
0  1e-07 2 13
2  4
0101000
+9 0 +8 0 +7 0 +6 0 +5 0 +4 0 *
Sh

0101100
+48 0 +43 0 +38 0 +35 0 -30 0 -25 0 -20 0 -15 0 -10 0 +3 0 
-3 3 *
So

0100000
+2 0 *

+1 1 